<svg width="20" height="20" viewBox="0 0 15 15" fill="none" xmlns="http://www.w3.org/2000/svg">
<path d="M12.5 5.75C12.5 6.02614 12.7239 6.25 13 6.25C13.2761 6.25 13.5 6.02614 13.5 5.75H12.5ZM6.125 13.75C6.40114 13.75 6.625 13.5261 6.625 13.25C6.625 12.9739 6.40114 12.75 6.125 12.75V13.75ZM10.375 2C10.375 1.72386 10.1511 1.5 9.875 1.5C9.59886 1.5 9.375 1.72386 9.375 2H10.375ZM9.375 4.5C9.375 4.77614 9.59886 5 9.875 5C10.1511 5 10.375 4.77614 10.375 4.5H9.375ZM6.625 2C6.625 1.72386 6.40114 1.5 6.125 1.5C5.84886 1.5 5.625 1.72386 5.625 2H6.625ZM5.625 4.5C5.625 4.77614 5.84886 5 6.125 5C6.40114 5 6.625 4.77614 6.625 4.5H5.625ZM3 6.5C2.72386 6.5 2.5 6.72386 2.5 7C2.5 7.27614 2.72386 7.5 3 7.5V6.5ZM6.125 7.5C6.40114 7.5 6.625 7.27614 6.625 7C6.625 6.72386 6.40114 6.5 6.125 6.5V7.5ZM8 12L7.64645 11.6464L7.5 11.7929V12H8ZM11.75 8.25L12.1036 7.89645C12.0098 7.80268 11.8826 7.75 11.75 7.75C11.6174 7.75 11.4902 7.80268 11.3964 7.89645L11.75 8.25ZM13 9.5L13.3536 9.85355C13.5488 9.65829 13.5488 9.34171 13.3536 9.14645L13 9.5ZM9.25 13.25V13.75H9.45711L9.60355 13.6036L9.25 13.25ZM8 13.25H7.5C7.5 13.5261 7.72386 13.75 8 13.75V13.25ZM4.25 3.75H11.75V2.75H4.25V3.75ZM3.5 12V4.5H2.5V12H3.5ZM4.25 12.75C3.83579 12.75 3.5 12.4142 3.5 12H2.5C2.5 12.9665 3.2835 13.75 4.25 13.75V12.75ZM11.75 3.75C12.1642 3.75 12.5 4.08579 12.5 4.5H13.5C13.5 3.5335 12.7165 2.75 11.75 2.75V3.75ZM4.25 2.75C3.2835 2.75 2.5 3.5335 2.5 4.5H3.5C3.5 4.08579 3.83579 3.75 4.25 3.75V2.75ZM12.5 4.5V5.75H13.5V4.5H12.5ZM6.125 12.75H4.25V13.75H6.125V12.75ZM9.375 2V4.5H10.375V2H9.375ZM5.625 2V4.5H6.625V2H5.625ZM3 7.5H6.125V6.5H3V7.5ZM8.35355 12.3536L12.1036 8.60355L11.3964 7.89645L7.64645 11.6464L8.35355 12.3536ZM11.3964 8.60355L12.6464 9.85355L13.3536 9.14645L12.1036 7.89645L11.3964 8.60355ZM12.6464 9.14645L8.89645 12.8964L9.60355 13.6036L13.3536 9.85355L12.6464 9.14645ZM9.25 12.75H8V13.75H9.25V12.75ZM8.5 13.25V12H7.5V13.25H8.5ZM10.4589 9.54105L11.7089 10.7911L12.4161 10.0839L11.1661 8.83395L10.4589 9.54105Z" fill="#666666"/>
</svg>
