<svg width="15" height="15" viewBox="0 0 15 15" fill="none" xmlns="http://www.w3.org/2000/svg">
<path fill-rule="evenodd" clip-rule="evenodd" d="M7.8989 12.2977C8.97818 11.711 11.875 9.85828 11.875 6.875C11.875 4.45875 9.91625 2.5 7.5 2.5C5.08375 2.5 3.125 4.45875 3.125 6.875C3.125 9.85828 6.02182 11.711 7.1011 12.2977C7.35136 12.4338 7.64864 12.4338 7.8989 12.2977ZM7.5 8.75C8.53553 8.75 9.375 7.91053 9.375 6.875C9.375 5.83947 8.53553 5 7.5 5C6.46447 5 5.625 5.83947 5.625 6.875C5.625 7.91053 6.46447 8.75 7.5 8.75Z" fill="#F2F2F2"/>
<path d="M7.8989 12.2977L8.18548 12.8248H8.18548L7.8989 12.2977ZM7.1011 12.2977L7.38767 11.7706L7.38767 11.7706L7.1011 12.2977ZM11.275 6.875C11.275 8.15985 10.6531 9.22876 9.85552 10.073C9.0572 10.9181 8.12397 11.4924 7.61233 11.7706L8.18548 12.8248C8.75311 12.5163 9.80792 11.8709 10.7278 10.8971C11.6485 9.9225 12.475 8.57342 12.475 6.875H11.275ZM7.5 3.1C9.58488 3.1 11.275 4.79013 11.275 6.875H12.475C12.475 4.12738 10.2476 1.9 7.5 1.9V3.1ZM3.725 6.875C3.725 4.79013 5.41513 3.1 7.5 3.1V1.9C4.75238 1.9 2.525 4.12738 2.525 6.875H3.725ZM7.38767 11.7706C6.87603 11.4924 5.9428 10.9181 5.14448 10.073C4.34691 9.22876 3.725 8.15985 3.725 6.875H2.525C2.525 8.57342 3.3515 9.9225 4.27216 10.8971C5.19208 11.8709 6.24689 12.5163 6.81452 12.8248L7.38767 11.7706ZM7.61233 11.7706C7.54077 11.8095 7.45923 11.8095 7.38767 11.7706L6.81452 12.8248C7.24348 13.058 7.75652 13.058 8.18548 12.8248L7.61233 11.7706ZM8.775 6.875C8.775 7.57916 8.20416 8.15 7.5 8.15V9.35C8.8669 9.35 9.975 8.24191 9.975 6.875H8.775ZM7.5 5.6C8.20416 5.6 8.775 6.17084 8.775 6.875H9.975C9.975 5.5081 8.8669 4.4 7.5 4.4V5.6ZM6.225 6.875C6.225 6.17084 6.79584 5.6 7.5 5.6V4.4C6.13309 4.4 5.025 5.5081 5.025 6.875H6.225ZM7.5 8.15C6.79584 8.15 6.225 7.57916 6.225 6.875H5.025C5.025 8.24191 6.13309 9.35 7.5 9.35V8.15Z" fill="#BDBDBD"/>
</svg>
