<svg width="16" height="17" viewBox="0 0 16 17" fill="none" xmlns="http://www.w3.org/2000/svg">
<path fill-rule="evenodd" clip-rule="evenodd" d="M4.63087 8.85352L7.55661 10.0207C7.78446 10.1116 8.0357 10.1111 8.26322 10.0193L11.121 8.86593L11.121 11.0838C11.121 11.0859 11.121 11.088 11.121 11.0901C11.121 11.7734 9.66815 12.3273 7.87595 12.3273C6.08374 12.3273 4.63087 11.7734 4.63087 11.0901C4.63087 11.0894 4.63087 11.0887 4.63087 11.088C4.63086 11.0866 4.63085 11.0852 4.63087 11.0838V8.85352Z" fill="#BDBDBD"/>
<path d="M13.7587 10.5191C13.8563 10.3287 13.9668 10.0813 14.0602 9.86135C14.133 9.69009 14.3401 9.65237 14.4292 9.81466C14.5852 10.0988 14.6881 10.4379 14.7393 10.6639C14.7556 10.7356 14.7412 10.8135 14.6893 10.8625C14.4691 11.0705 14.1292 11.0148 13.8651 10.9084C13.7235 10.8514 13.6863 10.6605 13.7587 10.5191Z" fill="white"/>
<path fill-rule="evenodd" clip-rule="evenodd" d="M14.2558 9.84448C14.2279 9.84856 14.1936 9.87043 14.1743 9.91597C14.0804 10.1369 13.9684 10.3878 13.8686 10.5826C13.8475 10.6239 13.8429 10.6721 13.8527 10.7116C13.862 10.7492 13.8822 10.7732 13.9096 10.7842C14.0331 10.834 14.1689 10.8695 14.2948 10.8705C14.4198 10.8716 14.5262 10.839 14.6064 10.7632C14.6153 10.7548 14.6263 10.7321 14.6179 10.6949C14.5683 10.4762 14.469 10.1506 14.3213 9.88157C14.3034 9.84897 14.2799 9.84094 14.2558 9.84448ZM14.2216 9.58134C14.3415 9.56377 14.4661 9.61803 14.5373 9.74772L14.4293 9.81465M14.2216 9.58134C14.1055 9.59836 13.9998 9.68098 13.9464 9.80669L14.2216 9.58134ZM14.5373 9.74772C14.7016 10.0471 14.8081 10.3997 14.8609 10.6328C14.885 10.7392 14.8674 10.8721 14.7725 10.9618C14.6324 11.094 14.4588 11.1376 14.2928 11.1362C14.1276 11.1348 13.9614 11.0892 13.8209 11.0326C13.5863 10.9381 13.5527 10.6436 13.649 10.4556C13.7444 10.2695 13.8534 10.0256 13.9464 9.80669" fill="#BDBDBD"/>
<path fill-rule="evenodd" clip-rule="evenodd" d="M14.0322 9.51049C14.0856 9.46405 14.1644 9.47241 14.2081 9.52918C14.2509 9.58486 14.273 9.66667 14.2868 9.73474C14.302 9.80983 14.3125 9.89762 14.3197 9.98589C14.3342 10.1628 14.3367 10.3544 14.3346 10.4773C14.3333 10.5506 14.2764 10.609 14.2074 10.6077C14.1383 10.6063 14.0834 10.5458 14.0846 10.4725C14.0866 10.3561 14.0842 10.1742 14.0707 10.0089C14.0639 9.92608 14.0545 9.85052 14.0424 9.79069C14.0363 9.7608 14.03 9.73715 14.0239 9.71963C14.0181 9.70309 14.0143 9.6971 14.0143 9.69706C14.0143 9.69706 14.0144 9.69717 14.0146 9.69739C13.9709 9.64062 13.9787 9.55694 14.0322 9.51049Z" fill="#BDBDBD"/>
<path fill-rule="evenodd" clip-rule="evenodd" d="M14.1855 6.94727C14.2891 6.94727 14.373 7.03646 14.373 7.14648V9.35268C14.373 9.46271 14.2891 9.5519 14.1855 9.5519C14.082 9.5519 13.998 9.46271 13.998 9.35268V7.14648C13.998 7.03646 14.082 6.94727 14.1855 6.94727Z" fill="#BDBDBD"/>
<path d="M14.701 9.4311C14.701 9.73391 14.47 9.97939 14.185 9.97939C13.9 9.97939 13.6689 9.73391 13.6689 9.4311C13.6689 9.12829 13.9 8.88281 14.185 8.88281C14.47 8.88281 14.701 9.12829 14.701 9.4311Z" fill="#BDBDBD"/>
<path d="M7.51974 4.39605L1.46101 6.96115C1.34904 7.00855 1.35063 7.17754 1.46347 7.22256L7.53953 9.64658C7.77999 9.74251 8.04512 9.74198 8.28523 9.64507L14.2881 7.22238C14.4004 7.17709 14.402 7.00904 14.2906 6.96136L8.30493 4.39772C8.05314 4.28988 7.77193 4.28928 7.51974 4.39605Z" fill="#BDBDBD"/>
<path fill-rule="evenodd" clip-rule="evenodd" d="M12.5025 7.37443C12.5262 7.44333 12.4928 7.51958 12.428 7.54472L8.15226 9.20263C8.08741 9.22778 8.01565 9.19231 7.99198 9.1234C7.96832 9.0545 8.0017 8.97825 8.06656 8.95311L12.3423 7.29519C12.4071 7.27005 12.4789 7.30552 12.5025 7.37443Z" fill="white"/>
<path fill-rule="evenodd" clip-rule="evenodd" d="M2.44616 7.06758C2.46993 6.99872 2.54175 6.96337 2.60656 6.98863L4.03553 7.54558C4.10034 7.57084 4.13361 7.64714 4.10983 7.716C4.08606 7.78487 4.01424 7.82021 3.94943 7.79495L2.52046 7.23801C2.45565 7.21274 2.42238 7.13644 2.44616 7.06758Z" fill="white"/>
</svg>
